<svg xmlns="http://www.w3.org/2000/svg" xmlns:xlink="http://www.w3.org/1999/xlink" width="500" zoomAndPan="magnify" viewBox="0 0 375 135.000003" height="180" preserveAspectRatio="xMidYMid meet" version="1.0"><defs><g/><clipPath id="d53b3865ea"><path d="M 1.378906 10 L 373.621094 10 L 373.621094 124 L 1.378906 124 Z M 1.378906 10 " clip-rule="nonzero"/></clipPath><clipPath id="1be7bb92d9"><rect x="0" width="373" y="0" height="114"/></clipPath></defs><g clip-path="url(#d53b3865ea)"><g transform="matrix(1, 0, 0, 1, 1, 10)"><g clip-path="url(#1be7bb92d9)"><g fill="#000000" fill-opacity="1"><g transform="translate(0.378672, 90.822132)"><g><path d="M 13.734375 -19.421875 L 13.734375 -29 C 15.273438 -31.070312 16.820312 -33.050781 18.375 -34.9375 C 19.925781 -36.820312 21.507812 -38.679688 23.125 -40.515625 C 24.738281 -42.359375 26.378906 -44.175781 28.046875 -45.96875 L 48.4375 -67.953125 L 59.65625 -67.953125 L 30.65625 -36.890625 L 30.1875 -36.9375 Z M 7.890625 0 L 7.890625 -67.953125 L 16.46875 -67.953125 L 16.46875 -44.609375 L 16.328125 -30.015625 L 16.46875 -25.8125 L 16.46875 0 Z M 49.578125 0 L 24.90625 -34.65625 L 30.1875 -41.328125 L 59.703125 0 Z M 49.578125 0 "/></g></g><g transform="translate(62.357556, 90.822132)"><g><path d="M 15 -30.015625 L 15 0 L 6.890625 0 L 6.890625 -67.953125 L 15 -67.953125 L 15 -38.171875 L 13.359375 -38.171875 C 14.910156 -42.796875 17.113281 -46.101562 19.96875 -48.09375 C 22.832031 -50.082031 26.195312 -51.078125 30.0625 -51.078125 C 33.46875 -51.078125 36.476562 -50.367188 39.09375 -48.953125 C 41.707031 -47.546875 43.75 -45.421875 45.21875 -42.578125 C 46.695312 -39.734375 47.4375 -36.148438 47.4375 -31.828125 L 47.4375 0 L 39.265625 0 L 39.265625 -31.203125 C 39.265625 -35.148438 38.242188 -38.222656 36.203125 -40.421875 C 34.171875 -42.628906 31.378906 -43.734375 27.828125 -43.734375 C 25.390625 -43.734375 23.203125 -43.21875 21.265625 -42.1875 C 19.335938 -41.15625 17.8125 -39.617188 16.6875 -37.578125 C 15.5625 -35.546875 15 -33.023438 15 -30.015625 Z M 15 -30.015625 "/></g></g><g transform="translate(116.674591, 90.822132)"><g><path d="M 21.25 1.09375 C 18.03125 1.09375 15.117188 0.5 12.515625 -0.6875 C 9.921875 -1.875 7.851562 -3.617188 6.3125 -5.921875 C 4.78125 -8.234375 4.015625 -11.046875 4.015625 -14.359375 C 4.015625 -17.253906 4.582031 -19.597656 5.71875 -21.390625 C 6.863281 -23.179688 8.382812 -24.601562 10.28125 -25.65625 C 12.1875 -26.707031 14.300781 -27.488281 16.625 -28 C 18.945312 -28.519531 21.296875 -28.929688 23.671875 -29.234375 C 26.742188 -29.628906 29.210938 -29.929688 31.078125 -30.140625 C 32.953125 -30.359375 34.335938 -30.71875 35.234375 -31.21875 C 36.128906 -31.71875 36.578125 -32.59375 36.578125 -33.84375 L 36.578125 -34.15625 C 36.578125 -36.195312 36.171875 -37.945312 35.359375 -39.40625 C 34.554688 -40.863281 33.363281 -41.976562 31.78125 -42.75 C 30.207031 -43.53125 28.25 -43.921875 25.90625 -43.921875 C 23.5 -43.921875 21.4375 -43.546875 19.71875 -42.796875 C 18.007812 -42.054688 16.613281 -41.097656 15.53125 -39.921875 C 14.445312 -38.753906 13.691406 -37.519531 13.265625 -36.21875 L 5.375 -38.265625 C 6.414062 -41.335938 7.984375 -43.804688 10.078125 -45.671875 C 12.171875 -47.546875 14.578125 -48.914062 17.296875 -49.78125 C 20.023438 -50.644531 22.832031 -51.078125 25.71875 -51.078125 C 27.664062 -51.078125 29.734375 -50.828125 31.921875 -50.328125 C 34.109375 -49.828125 36.164062 -48.953125 38.09375 -47.703125 C 40.03125 -46.460938 41.609375 -44.691406 42.828125 -42.390625 C 44.046875 -40.097656 44.65625 -37.140625 44.65625 -33.515625 L 44.65625 0 L 36.671875 0 L 36.671875 -6.9375 L 36.21875 -6.9375 C 35.632812 -5.75 34.71875 -4.53125 33.46875 -3.28125 C 32.226562 -2.03125 30.601562 -0.988281 28.59375 -0.15625 C 26.59375 0.675781 24.144531 1.09375 21.25 1.09375 Z M 22.578125 -6.109375 C 25.648438 -6.109375 28.21875 -6.691406 30.28125 -7.859375 C 32.351562 -9.035156 33.921875 -10.566406 34.984375 -12.453125 C 36.046875 -14.335938 36.578125 -16.3125 36.578125 -18.375 L 36.578125 -25.21875 C 36.242188 -24.851562 35.550781 -24.519531 34.5 -24.21875 C 33.445312 -23.914062 32.226562 -23.640625 30.84375 -23.390625 C 29.46875 -23.148438 28.101562 -22.945312 26.75 -22.78125 C 25.394531 -22.613281 24.25 -22.46875 23.3125 -22.34375 C 21.363281 -22.101562 19.535156 -21.6875 17.828125 -21.09375 C 16.128906 -20.5 14.757812 -19.640625 13.71875 -18.515625 C 12.6875 -17.390625 12.171875 -15.867188 12.171875 -13.953125 C 12.171875 -12.253906 12.617188 -10.816406 13.515625 -9.640625 C 14.421875 -8.472656 15.644531 -7.59375 17.1875 -7 C 18.738281 -6.40625 20.535156 -6.109375 22.578125 -6.109375 Z M 22.578125 -6.109375 "/></g></g><g transform="translate(168.209645, 90.822132)"><g><path d="M 6.84375 -50.359375 L 15 -50.359375 L 15 4.328125 C 15 7.335938 14.453125 9.953125 13.359375 12.171875 C 12.265625 14.390625 10.644531 16.09375 8.5 17.28125 C 6.363281 18.46875 3.710938 19.0625 0.546875 19.0625 L -1.5 19.0625 L -1.5 11.671875 L 0.28125 11.671875 C 2.550781 11.671875 4.210938 11.023438 5.265625 9.734375 C 6.316406 8.441406 6.84375 6.550781 6.84375 4.0625 Z M 10.953125 -58.921875 C 9.429688 -58.921875 8.113281 -59.453125 7 -60.515625 C 5.894531 -61.585938 5.34375 -62.867188 5.34375 -64.359375 C 5.34375 -65.847656 5.894531 -67.113281 7 -68.15625 C 8.113281 -69.207031 9.429688 -69.734375 10.953125 -69.734375 C 12.492188 -69.734375 13.820312 -69.207031 14.9375 -68.15625 C 16.050781 -67.113281 16.609375 -65.847656 16.609375 -64.359375 C 16.609375 -62.867188 16.050781 -61.585938 14.9375 -60.515625 C 13.820312 -59.453125 12.492188 -58.921875 10.953125 -58.921875 Z M 10.953125 -58.921875 "/></g></g><g transform="translate(190.100641, 90.822132)"><g><path d="M 21.25 1.09375 C 18.03125 1.09375 15.117188 0.5 12.515625 -0.6875 C 9.921875 -1.875 7.851562 -3.617188 6.3125 -5.921875 C 4.78125 -8.234375 4.015625 -11.046875 4.015625 -14.359375 C 4.015625 -17.253906 4.582031 -19.597656 5.71875 -21.390625 C 6.863281 -23.179688 8.382812 -24.601562 10.28125 -25.65625 C 12.1875 -26.707031 14.300781 -27.488281 16.625 -28 C 18.945312 -28.519531 21.296875 -28.929688 23.671875 -29.234375 C 26.742188 -29.628906 29.210938 -29.929688 31.078125 -30.140625 C 32.953125 -30.359375 34.335938 -30.71875 35.234375 -31.21875 C 36.128906 -31.71875 36.578125 -32.59375 36.578125 -33.84375 L 36.578125 -34.15625 C 36.578125 -36.195312 36.171875 -37.945312 35.359375 -39.40625 C 34.554688 -40.863281 33.363281 -41.976562 31.78125 -42.75 C 30.207031 -43.53125 28.25 -43.921875 25.90625 -43.921875 C 23.5 -43.921875 21.4375 -43.546875 19.71875 -42.796875 C 18.007812 -42.054688 16.613281 -41.097656 15.53125 -39.921875 C 14.445312 -38.753906 13.691406 -37.519531 13.265625 -36.21875 L 5.375 -38.265625 C 6.414062 -41.335938 7.984375 -43.804688 10.078125 -45.671875 C 12.171875 -47.546875 14.578125 -48.914062 17.296875 -49.78125 C 20.023438 -50.644531 22.832031 -51.078125 25.71875 -51.078125 C 27.664062 -51.078125 29.734375 -50.828125 31.921875 -50.328125 C 34.109375 -49.828125 36.164062 -48.953125 38.09375 -47.703125 C 40.03125 -46.460938 41.609375 -44.691406 42.828125 -42.390625 C 44.046875 -40.097656 44.65625 -37.140625 44.65625 -33.515625 L 44.65625 0 L 36.671875 0 L 36.671875 -6.9375 L 36.21875 -6.9375 C 35.632812 -5.75 34.71875 -4.53125 33.46875 -3.28125 C 32.226562 -2.03125 30.601562 -0.988281 28.59375 -0.15625 C 26.59375 0.675781 24.144531 1.09375 21.25 1.09375 Z M 22.578125 -6.109375 C 25.648438 -6.109375 28.21875 -6.691406 30.28125 -7.859375 C 32.351562 -9.035156 33.921875 -10.566406 34.984375 -12.453125 C 36.046875 -14.335938 36.578125 -16.3125 36.578125 -18.375 L 36.578125 -25.21875 C 36.242188 -24.851562 35.550781 -24.519531 34.5 -24.21875 C 33.445312 -23.914062 32.226562 -23.640625 30.84375 -23.390625 C 29.46875 -23.148438 28.101562 -22.945312 26.75 -22.78125 C 25.394531 -22.613281 24.25 -22.46875 23.3125 -22.34375 C 21.363281 -22.101562 19.535156 -21.6875 17.828125 -21.09375 C 16.128906 -20.5 14.757812 -19.640625 13.71875 -18.515625 C 12.6875 -17.390625 12.171875 -15.867188 12.171875 -13.953125 C 12.171875 -12.253906 12.617188 -10.816406 13.515625 -9.640625 C 14.421875 -8.472656 15.644531 -7.59375 17.1875 -7 C 18.738281 -6.40625 20.535156 -6.109375 22.578125 -6.109375 Z M 22.578125 -6.109375 "/></g></g></g><g fill="#ff6900" fill-opacity="1"><g transform="translate(241.638992, 90.822132)"><g><path d="M 32.609375 -21.25 L 41.640625 -21.25 L 49.21875 -11.3125 L 51.125 -8.671875 L 62.4375 6.390625 L 53.40625 6.390625 L 46.015625 -3.5625 L 44.109375 -6.109375 Z M 35.578125 0.953125 C 29.734375 0.953125 24.523438 -0.472656 19.953125 -3.328125 C 15.378906 -6.179688 11.785156 -10.222656 9.171875 -15.453125 C 6.554688 -20.691406 5.25 -26.851562 5.25 -33.9375 C 5.25 -41.050781 6.554688 -47.222656 9.171875 -52.453125 C 11.785156 -57.679688 15.378906 -61.734375 19.953125 -64.609375 C 24.523438 -67.484375 29.734375 -68.921875 35.578125 -68.921875 C 41.441406 -68.921875 46.644531 -67.484375 51.1875 -64.609375 C 55.738281 -61.734375 59.320312 -57.679688 61.9375 -52.453125 C 64.550781 -47.222656 65.859375 -41.050781 65.859375 -33.9375 C 65.859375 -26.851562 64.550781 -20.691406 61.9375 -15.453125 C 59.320312 -10.222656 55.738281 -6.179688 51.1875 -3.328125 C 46.644531 -0.472656 41.441406 0.953125 35.578125 0.953125 Z M 35.578125 -6.984375 C 39.648438 -6.984375 43.332031 -8.015625 46.625 -10.078125 C 49.925781 -12.148438 52.554688 -15.191406 54.515625 -19.203125 C 56.484375 -23.210938 57.46875 -28.125 57.46875 -33.9375 C 57.46875 -39.769531 56.484375 -44.703125 54.515625 -48.734375 C 52.554688 -52.765625 49.925781 -55.8125 46.625 -57.875 C 43.332031 -59.945312 39.648438 -60.984375 35.578125 -60.984375 C 31.503906 -60.984375 27.804688 -59.941406 24.484375 -57.859375 C 21.171875 -55.773438 18.535156 -52.722656 16.578125 -48.703125 C 14.617188 -44.691406 13.640625 -39.769531 13.640625 -33.9375 C 13.640625 -28.125 14.617188 -23.21875 16.578125 -19.21875 C 18.535156 -15.21875 21.171875 -12.175781 24.484375 -10.09375 C 27.804688 -8.019531 31.503906 -6.984375 35.578125 -6.984375 Z M 35.578125 -6.984375 "/></g></g><g transform="translate(312.739124, 90.822132)"><g><path d="M 7.890625 0 L 7.890625 -67.953125 L 31.5625 -67.953125 C 36.726562 -67.953125 41.03125 -67.0625 44.46875 -65.28125 C 47.90625 -63.507812 50.472656 -61.046875 52.171875 -57.890625 C 53.878906 -54.742188 54.734375 -51.132812 54.734375 -47.0625 C 54.734375 -42.957031 53.863281 -39.351562 52.125 -36.25 C 50.394531 -33.15625 47.8125 -30.75 44.375 -29.03125 C 40.9375 -27.3125 36.632812 -26.453125 31.46875 -26.453125 L 12.671875 -26.453125 L 12.671875 -34.0625 L 31.234375 -34.0625 C 34.734375 -34.0625 37.578125 -34.585938 39.765625 -35.640625 C 41.953125 -36.691406 43.570312 -38.1875 44.625 -40.125 C 45.675781 -42.070312 46.203125 -44.382812 46.203125 -47.0625 C 46.203125 -49.769531 45.675781 -52.117188 44.625 -54.109375 C 43.570312 -56.109375 41.941406 -57.660156 39.734375 -58.765625 C 37.535156 -59.878906 34.675781 -60.4375 31.15625 -60.4375 L 16.46875 -60.4375 L 16.46875 0 Z M 47.015625 0 L 30.609375 -30.609375 L 40.265625 -30.609375 L 56.96875 0 Z M 47.015625 0 "/></g></g></g></g></g></g></svg>